<mxfile host="Electron" modified="2025-03-29T21:47:32.431Z" agent="Mozilla/5.0 (X11; Linux x86_64) AppleWebKit/537.36 (KHTML, like Gecko) draw.io/24.6.4 Chrome/124.0.6367.207 Electron/30.0.6 Safari/537.36" etag="AYY_DWIG01H16kfO-1gC" version="24.6.4" type="device">
  <diagram name="Страница — 1" id="T83xzV8yWxuntDXLBeNQ">
    <mxGraphModel dx="1364" dy="843" grid="1" gridSize="10" guides="1" tooltips="1" connect="1" arrows="1" fold="1" page="1" pageScale="1" pageWidth="1027" pageHeight="1169" math="0" shadow="0">
      <root>
        <mxCell id="0" />
        <mxCell id="1" parent="0" />
        <mxCell id="o3Q_CnFmKM4m5-AXHLZn-1" value="Загрузка содержимого удаленного репозитория" style="swimlane;html=1;childLayout=stackLayout;resizeParent=1;resizeParentMax=0;horizontal=0;startSize=20;horizontalStack=0;whiteSpace=wrap;" vertex="1" parent="1">
          <mxGeometry x="170" y="80" width="1180" height="320" as="geometry" />
        </mxCell>
        <mxCell id="o3Q_CnFmKM4m5-AXHLZn-2" value="" style="swimlane;html=1;startSize=20;horizontal=0;" vertex="1" parent="o3Q_CnFmKM4m5-AXHLZn-1">
          <mxGeometry x="20" width="1160" height="320" as="geometry" />
        </mxCell>
        <mxCell id="o3Q_CnFmKM4m5-AXHLZn-3" value="" style="points=[[0.25,0.25,0],[0.5,0,0],[0.75,0.25,0],[1,0.5,0],[0.75,0.75,0],[0.5,1,0],[0.25,0.75,0],[0,0.5,0]];shape=mxgraph.bpmn.gateway2;html=1;verticalLabelPosition=bottom;labelBackgroundColor=#ffffff;verticalAlign=top;align=center;perimeter=rhombusPerimeter;outlineConnect=0;outline=none;symbol=none;gwType=exclusive;" vertex="1" parent="o3Q_CnFmKM4m5-AXHLZn-2">
          <mxGeometry x="360" y="190" width="50" height="50" as="geometry" />
        </mxCell>
        <mxCell id="o3Q_CnFmKM4m5-AXHLZn-4" value="" style="points=[[0.145,0.145,0],[0.5,0,0],[0.855,0.145,0],[1,0.5,0],[0.855,0.855,0],[0.5,1,0],[0.145,0.855,0],[0,0.5,0]];shape=mxgraph.bpmn.event;html=1;verticalLabelPosition=bottom;labelBackgroundColor=#ffffff;verticalAlign=top;align=center;perimeter=ellipsePerimeter;outlineConnect=0;aspect=fixed;outline=end;symbol=cancel;" vertex="1" parent="o3Q_CnFmKM4m5-AXHLZn-2">
          <mxGeometry x="450" y="230" width="50" height="50" as="geometry" />
        </mxCell>
        <mxCell id="o3Q_CnFmKM4m5-AXHLZn-5" style="edgeStyle=orthogonalEdgeStyle;rounded=0;orthogonalLoop=1;jettySize=auto;html=1;entryX=0;entryY=0.5;entryDx=0;entryDy=0;entryPerimeter=0;" edge="1" parent="o3Q_CnFmKM4m5-AXHLZn-2" source="o3Q_CnFmKM4m5-AXHLZn-3" target="o3Q_CnFmKM4m5-AXHLZn-4">
          <mxGeometry relative="1" as="geometry">
            <Array as="points">
              <mxPoint x="385" y="255" />
            </Array>
          </mxGeometry>
        </mxCell>
        <mxCell id="o3Q_CnFmKM4m5-AXHLZn-6" value="Отказано" style="text;html=1;align=center;verticalAlign=middle;resizable=0;points=[];autosize=1;strokeColor=none;fillColor=none;" vertex="1" parent="o3Q_CnFmKM4m5-AXHLZn-2">
          <mxGeometry x="370" y="255" width="80" height="30" as="geometry" />
        </mxCell>
        <mxCell id="o3Q_CnFmKM4m5-AXHLZn-7" style="edgeStyle=orthogonalEdgeStyle;rounded=0;orthogonalLoop=1;jettySize=auto;html=1;entryX=0;entryY=0.5;entryDx=0;entryDy=0;entryPerimeter=0;" edge="1" parent="o3Q_CnFmKM4m5-AXHLZn-2" source="o3Q_CnFmKM4m5-AXHLZn-8" target="o3Q_CnFmKM4m5-AXHLZn-22">
          <mxGeometry relative="1" as="geometry">
            <mxPoint x="650" y="120" as="targetPoint" />
            <Array as="points">
              <mxPoint x="525" y="125" />
            </Array>
          </mxGeometry>
        </mxCell>
        <mxCell id="o3Q_CnFmKM4m5-AXHLZn-8" value="" style="points=[[0.25,0.25,0],[0.5,0,0],[0.75,0.25,0],[1,0.5,0],[0.75,0.75,0],[0.5,1,0],[0.25,0.75,0],[0,0.5,0]];shape=mxgraph.bpmn.gateway2;html=1;verticalLabelPosition=bottom;labelBackgroundColor=#ffffff;verticalAlign=top;align=center;perimeter=rhombusPerimeter;outlineConnect=0;outline=none;symbol=none;gwType=exclusive;" vertex="1" parent="o3Q_CnFmKM4m5-AXHLZn-2">
          <mxGeometry x="500" y="155" width="50" height="50" as="geometry" />
        </mxCell>
        <mxCell id="o3Q_CnFmKM4m5-AXHLZn-9" style="edgeStyle=orthogonalEdgeStyle;rounded=0;orthogonalLoop=1;jettySize=auto;html=1;" edge="1" parent="o3Q_CnFmKM4m5-AXHLZn-2" source="o3Q_CnFmKM4m5-AXHLZn-8">
          <mxGeometry relative="1" as="geometry">
            <mxPoint x="640" y="215" as="targetPoint" />
            <Array as="points">
              <mxPoint x="525" y="215" />
            </Array>
          </mxGeometry>
        </mxCell>
        <mxCell id="o3Q_CnFmKM4m5-AXHLZn-10" value="&lt;span style=&quot;text-wrap: nowrap;&quot;&gt;Запрос серверу&lt;/span&gt;&lt;br style=&quot;text-wrap: nowrap;&quot;&gt;&lt;span style=&quot;text-wrap: nowrap;&quot;&gt;на синхронизацию&lt;/span&gt;" style="points=[[0.25,0,0],[0.5,0,0],[0.75,0,0],[1,0.25,0],[1,0.5,0],[1,0.75,0],[0.75,1,0],[0.5,1,0],[0.25,1,0],[0,0.75,0],[0,0.5,0],[0,0.25,0]];shape=mxgraph.bpmn.task;whiteSpace=wrap;rectStyle=rounded;size=10;html=1;container=1;expand=0;collapsible=0;taskMarker=abstract;" vertex="1" parent="o3Q_CnFmKM4m5-AXHLZn-2">
          <mxGeometry x="40" y="175" width="120" height="80" as="geometry" />
        </mxCell>
        <mxCell id="o3Q_CnFmKM4m5-AXHLZn-11" value="&lt;span style=&quot;text-wrap: nowrap;&quot;&gt;Проверка прав&amp;nbsp;&lt;/span&gt;&lt;div&gt;&lt;span style=&quot;text-wrap: nowrap;&quot;&gt;доступа&lt;/span&gt;&lt;/div&gt;" style="points=[[0.25,0,0],[0.5,0,0],[0.75,0,0],[1,0.25,0],[1,0.5,0],[1,0.75,0],[0.75,1,0],[0.5,1,0],[0.25,1,0],[0,0.75,0],[0,0.5,0],[0,0.25,0]];shape=mxgraph.bpmn.task;whiteSpace=wrap;rectStyle=rounded;size=10;html=1;container=1;expand=0;collapsible=0;taskMarker=abstract;" vertex="1" parent="o3Q_CnFmKM4m5-AXHLZn-2">
          <mxGeometry x="180" y="175" width="120" height="80" as="geometry" />
        </mxCell>
        <mxCell id="o3Q_CnFmKM4m5-AXHLZn-12" value="&lt;span style=&quot;text-wrap: nowrap;&quot;&gt;Проверка существования&lt;/span&gt;&lt;div&gt;&lt;span style=&quot;background-color: initial; text-wrap: nowrap;&quot;&gt;изменений,&amp;nbsp;&lt;/span&gt;&lt;span style=&quot;background-color: initial; text-wrap: nowrap;&quot;&gt;не&amp;nbsp;&lt;/span&gt;&lt;div&gt;&lt;span style=&quot;text-wrap: nowrap;&quot;&gt;синхронизированных с&lt;/span&gt;&lt;br style=&quot;text-wrap: nowrap;&quot;&gt;&lt;span style=&quot;text-wrap: nowrap;&quot;&gt;удаленным репозиторием&lt;/span&gt;&lt;/div&gt;&lt;/div&gt;" style="points=[[0.25,0,0],[0.5,0,0],[0.75,0,0],[1,0.25,0],[1,0.5,0],[1,0.75,0],[0.75,1,0],[0.5,1,0],[0.25,1,0],[0,0.75,0],[0,0.5,0],[0,0.25,0]];shape=mxgraph.bpmn.task;whiteSpace=wrap;rectStyle=rounded;size=10;html=1;container=1;expand=0;collapsible=0;taskMarker=abstract;" vertex="1" parent="o3Q_CnFmKM4m5-AXHLZn-2">
          <mxGeometry x="297.5" y="90" width="175" height="80" as="geometry" />
        </mxCell>
        <mxCell id="o3Q_CnFmKM4m5-AXHLZn-13" style="edgeStyle=orthogonalEdgeStyle;rounded=0;orthogonalLoop=1;jettySize=auto;html=1;entryX=0;entryY=0.5;entryDx=0;entryDy=0;entryPerimeter=0;" edge="1" parent="o3Q_CnFmKM4m5-AXHLZn-2" source="o3Q_CnFmKM4m5-AXHLZn-11" target="o3Q_CnFmKM4m5-AXHLZn-3">
          <mxGeometry relative="1" as="geometry" />
        </mxCell>
        <mxCell id="o3Q_CnFmKM4m5-AXHLZn-14" style="edgeStyle=orthogonalEdgeStyle;rounded=0;orthogonalLoop=1;jettySize=auto;html=1;entryX=0.5;entryY=1;entryDx=0;entryDy=0;entryPerimeter=0;" edge="1" parent="o3Q_CnFmKM4m5-AXHLZn-2" source="o3Q_CnFmKM4m5-AXHLZn-3" target="o3Q_CnFmKM4m5-AXHLZn-12">
          <mxGeometry relative="1" as="geometry" />
        </mxCell>
        <mxCell id="o3Q_CnFmKM4m5-AXHLZn-15" style="edgeStyle=orthogonalEdgeStyle;rounded=0;orthogonalLoop=1;jettySize=auto;html=1;entryX=0;entryY=0.5;entryDx=0;entryDy=0;entryPerimeter=0;" edge="1" parent="o3Q_CnFmKM4m5-AXHLZn-2" source="o3Q_CnFmKM4m5-AXHLZn-12" target="o3Q_CnFmKM4m5-AXHLZn-8">
          <mxGeometry relative="1" as="geometry">
            <Array as="points">
              <mxPoint x="490" y="130" />
              <mxPoint x="490" y="180" />
            </Array>
          </mxGeometry>
        </mxCell>
        <mxCell id="o3Q_CnFmKM4m5-AXHLZn-16" value="Изменения&lt;div&gt;существуют&lt;/div&gt;" style="text;html=1;align=center;verticalAlign=middle;resizable=0;points=[];autosize=1;strokeColor=none;fillColor=none;" vertex="1" parent="o3Q_CnFmKM4m5-AXHLZn-2">
          <mxGeometry x="520" y="80" width="90" height="40" as="geometry" />
        </mxCell>
        <mxCell id="o3Q_CnFmKM4m5-AXHLZn-17" value="Изменений нет" style="text;html=1;align=center;verticalAlign=middle;resizable=0;points=[];autosize=1;strokeColor=none;fillColor=none;" vertex="1" parent="o3Q_CnFmKM4m5-AXHLZn-2">
          <mxGeometry x="520" y="225" width="110" height="30" as="geometry" />
        </mxCell>
        <mxCell id="o3Q_CnFmKM4m5-AXHLZn-18" style="edgeStyle=orthogonalEdgeStyle;rounded=0;orthogonalLoop=1;jettySize=auto;html=1;entryX=0;entryY=0.5;entryDx=0;entryDy=0;entryPerimeter=0;" edge="1" parent="o3Q_CnFmKM4m5-AXHLZn-2" source="o3Q_CnFmKM4m5-AXHLZn-10" target="o3Q_CnFmKM4m5-AXHLZn-11">
          <mxGeometry relative="1" as="geometry" />
        </mxCell>
        <mxCell id="o3Q_CnFmKM4m5-AXHLZn-27" value="" style="points=[[0.145,0.145,0],[0.5,0,0],[0.855,0.145,0],[1,0.5,0],[0.855,0.855,0],[0.5,1,0],[0.145,0.855,0],[0,0.5,0]];shape=mxgraph.bpmn.event;html=1;verticalLabelPosition=bottom;labelBackgroundColor=#ffffff;verticalAlign=top;align=center;perimeter=ellipsePerimeter;outlineConnect=0;aspect=fixed;outline=boundInt;symbol=cancel;" vertex="1" parent="o3Q_CnFmKM4m5-AXHLZn-2">
          <mxGeometry x="640" y="190" width="50" height="50" as="geometry" />
        </mxCell>
        <mxCell id="o3Q_CnFmKM4m5-AXHLZn-22" value="&lt;span style=&quot;text-wrap: nowrap;&quot;&gt;Отправить запрос&lt;/span&gt;&lt;div&gt;&lt;span style=&quot;text-wrap: nowrap;&quot;&gt;на синхронихацию&lt;/span&gt;&lt;/div&gt;&lt;div&gt;&lt;span style=&quot;text-wrap: nowrap;&quot;&gt;удаленному&lt;/span&gt;&lt;/div&gt;&lt;div&gt;&lt;span style=&quot;text-wrap: nowrap;&quot;&gt;репозиторию&lt;/span&gt;&lt;/div&gt;" style="points=[[0.25,0,0],[0.5,0,0],[0.75,0,0],[1,0.25,0],[1,0.5,0],[1,0.75,0],[0.75,1,0],[0.5,1,0],[0.25,1,0],[0,0.75,0],[0,0.5,0],[0,0.25,0]];shape=mxgraph.bpmn.task;whiteSpace=wrap;rectStyle=rounded;size=10;html=1;container=1;expand=0;collapsible=0;taskMarker=abstract;" vertex="1" parent="o3Q_CnFmKM4m5-AXHLZn-2">
          <mxGeometry x="620" y="80" width="120" height="90" as="geometry" />
        </mxCell>
        <mxCell id="o3Q_CnFmKM4m5-AXHLZn-25" value="" style="endArrow=none;dashed=1;html=1;rounded=0;entryX=0.5;entryY=0;entryDx=0;entryDy=0;entryPerimeter=0;startArrow=classic;startFill=1;" edge="1" parent="o3Q_CnFmKM4m5-AXHLZn-2" target="o3Q_CnFmKM4m5-AXHLZn-22">
          <mxGeometry width="50" height="50" relative="1" as="geometry">
            <mxPoint x="680" as="sourcePoint" />
            <mxPoint x="480" y="210" as="targetPoint" />
          </mxGeometry>
        </mxCell>
        <mxCell id="o3Q_CnFmKM4m5-AXHLZn-26" style="edgeStyle=orthogonalEdgeStyle;rounded=0;orthogonalLoop=1;jettySize=auto;html=1;entryX=0;entryY=0.5;entryDx=0;entryDy=0;entryPerimeter=0;" edge="1" parent="o3Q_CnFmKM4m5-AXHLZn-2" source="o3Q_CnFmKM4m5-AXHLZn-22">
          <mxGeometry relative="1" as="geometry">
            <mxPoint x="770" y="125" as="targetPoint" />
          </mxGeometry>
        </mxCell>
        <mxCell id="o3Q_CnFmKM4m5-AXHLZn-30" value="" style="points=[[0.25,0.25,0],[0.5,0,0],[0.75,0.25,0],[1,0.5,0],[0.75,0.75,0],[0.5,1,0],[0.25,0.75,0],[0,0.5,0]];shape=mxgraph.bpmn.gateway2;html=1;verticalLabelPosition=bottom;labelBackgroundColor=#ffffff;verticalAlign=top;align=center;perimeter=rhombusPerimeter;outlineConnect=0;outline=boundInt;symbol=multiple;" vertex="1" parent="o3Q_CnFmKM4m5-AXHLZn-2">
          <mxGeometry x="770" y="100" width="50" height="50" as="geometry" />
        </mxCell>
        <mxCell id="o3Q_CnFmKM4m5-AXHLZn-31" value="Отказ" style="text;html=1;align=center;verticalAlign=middle;resizable=0;points=[];autosize=1;strokeColor=none;fillColor=none;" vertex="1" parent="o3Q_CnFmKM4m5-AXHLZn-2">
          <mxGeometry x="750" y="170" width="60" height="30" as="geometry" />
        </mxCell>
        <mxCell id="o3Q_CnFmKM4m5-AXHLZn-32" value="" style="points=[[0.145,0.145,0],[0.5,0,0],[0.855,0.145,0],[1,0.5,0],[0.855,0.855,0],[0.5,1,0],[0.145,0.855,0],[0,0.5,0]];shape=mxgraph.bpmn.event;html=1;verticalLabelPosition=bottom;labelBackgroundColor=#ffffff;verticalAlign=top;align=center;perimeter=ellipsePerimeter;outlineConnect=0;aspect=fixed;outline=standard;symbol=message;" vertex="1" parent="o3Q_CnFmKM4m5-AXHLZn-2">
          <mxGeometry x="820" y="155" width="50" height="50" as="geometry" />
        </mxCell>
        <mxCell id="o3Q_CnFmKM4m5-AXHLZn-33" value="" style="edgeStyle=orthogonalEdgeStyle;rounded=0;orthogonalLoop=1;jettySize=auto;html=1;entryX=0;entryY=0.5;entryDx=0;entryDy=0;entryPerimeter=0;" edge="1" parent="o3Q_CnFmKM4m5-AXHLZn-2" source="o3Q_CnFmKM4m5-AXHLZn-30" target="o3Q_CnFmKM4m5-AXHLZn-32">
          <mxGeometry relative="1" as="geometry">
            <mxPoint x="1060" y="260" as="targetPoint" />
            <mxPoint x="985" y="230" as="sourcePoint" />
            <Array as="points" />
          </mxGeometry>
        </mxCell>
        <mxCell id="o3Q_CnFmKM4m5-AXHLZn-34" value="Сообщение причины отказа" style="text;html=1;align=center;verticalAlign=middle;resizable=0;points=[];autosize=1;strokeColor=none;fillColor=none;" vertex="1" parent="o3Q_CnFmKM4m5-AXHLZn-2">
          <mxGeometry x="755" y="210" width="180" height="30" as="geometry" />
        </mxCell>
        <mxCell id="o3Q_CnFmKM4m5-AXHLZn-35" value="&lt;span style=&quot;text-wrap: nowrap;&quot;&gt;Перезаписать&lt;/span&gt;&lt;div&gt;&lt;span style=&quot;text-wrap: nowrap;&quot;&gt;удаленный&lt;/span&gt;&lt;/div&gt;&lt;div&gt;&lt;span style=&quot;text-wrap: nowrap;&quot;&gt;репозиторий&lt;/span&gt;&lt;/div&gt;" style="points=[[0.25,0,0],[0.5,0,0],[0.75,0,0],[1,0.25,0],[1,0.5,0],[1,0.75,0],[0.75,1,0],[0.5,1,0],[0.25,1,0],[0,0.75,0],[0,0.5,0],[0,0.25,0]];shape=mxgraph.bpmn.task;whiteSpace=wrap;rectStyle=rounded;size=10;html=1;container=1;expand=0;collapsible=0;taskMarker=abstract;" vertex="1" parent="o3Q_CnFmKM4m5-AXHLZn-2">
          <mxGeometry x="950" y="20" width="120" height="60" as="geometry" />
        </mxCell>
        <mxCell id="o3Q_CnFmKM4m5-AXHLZn-36" value="&lt;span style=&quot;text-wrap: nowrap;&quot;&gt;Указать причину&lt;/span&gt;&lt;div&gt;&lt;span style=&quot;text-wrap: nowrap;&quot;&gt;отказа студенту&lt;/span&gt;&lt;/div&gt;" style="points=[[0.25,0,0],[0.5,0,0],[0.75,0,0],[1,0.25,0],[1,0.5,0],[1,0.75,0],[0.75,1,0],[0.5,1,0],[0.25,1,0],[0,0.75,0],[0,0.5,0],[0,0.25,0]];shape=mxgraph.bpmn.task;whiteSpace=wrap;rectStyle=rounded;size=10;html=1;container=1;expand=0;collapsible=0;taskMarker=abstract;" vertex="1" parent="o3Q_CnFmKM4m5-AXHLZn-2">
          <mxGeometry x="890" y="152.5" width="120" height="55" as="geometry" />
        </mxCell>
        <mxCell id="o3Q_CnFmKM4m5-AXHLZn-37" style="edgeStyle=orthogonalEdgeStyle;rounded=0;orthogonalLoop=1;jettySize=auto;html=1;entryX=0;entryY=0.5;entryDx=0;entryDy=0;entryPerimeter=0;" edge="1" parent="o3Q_CnFmKM4m5-AXHLZn-2" source="o3Q_CnFmKM4m5-AXHLZn-32" target="o3Q_CnFmKM4m5-AXHLZn-36">
          <mxGeometry relative="1" as="geometry" />
        </mxCell>
        <mxCell id="o3Q_CnFmKM4m5-AXHLZn-38" value="" style="points=[[0.145,0.145,0],[0.5,0,0],[0.855,0.145,0],[1,0.5,0],[0.855,0.855,0],[0.5,1,0],[0.145,0.855,0],[0,0.5,0]];shape=mxgraph.bpmn.event;html=1;verticalLabelPosition=bottom;labelBackgroundColor=#ffffff;verticalAlign=top;align=center;perimeter=ellipsePerimeter;outlineConnect=0;aspect=fixed;outline=end;symbol=cancel;" vertex="1" parent="o3Q_CnFmKM4m5-AXHLZn-2">
          <mxGeometry x="1030" y="155" width="50" height="50" as="geometry" />
        </mxCell>
        <mxCell id="o3Q_CnFmKM4m5-AXHLZn-39" style="edgeStyle=orthogonalEdgeStyle;rounded=0;orthogonalLoop=1;jettySize=auto;html=1;entryX=0;entryY=0.5;entryDx=0;entryDy=0;entryPerimeter=0;" edge="1" parent="o3Q_CnFmKM4m5-AXHLZn-2" source="o3Q_CnFmKM4m5-AXHLZn-36" target="o3Q_CnFmKM4m5-AXHLZn-38">
          <mxGeometry relative="1" as="geometry" />
        </mxCell>
        <mxCell id="o3Q_CnFmKM4m5-AXHLZn-40" value="" style="points=[[0.145,0.145,0],[0.5,0,0],[0.855,0.145,0],[1,0.5,0],[0.855,0.855,0],[0.5,1,0],[0.145,0.855,0],[0,0.5,0]];shape=mxgraph.bpmn.event;html=1;verticalLabelPosition=bottom;labelBackgroundColor=#ffffff;verticalAlign=top;align=center;perimeter=ellipsePerimeter;outlineConnect=0;aspect=fixed;outline=standard;symbol=message;" vertex="1" parent="o3Q_CnFmKM4m5-AXHLZn-2">
          <mxGeometry x="870" y="25" width="50" height="50" as="geometry" />
        </mxCell>
        <mxCell id="o3Q_CnFmKM4m5-AXHLZn-41" value="Сообщение&lt;div&gt;подстверждения&lt;/div&gt;" style="text;html=1;align=center;verticalAlign=middle;resizable=0;points=[];autosize=1;strokeColor=none;fillColor=none;" vertex="1" parent="o3Q_CnFmKM4m5-AXHLZn-2">
          <mxGeometry x="840" y="80" width="120" height="40" as="geometry" />
        </mxCell>
        <mxCell id="o3Q_CnFmKM4m5-AXHLZn-42" style="edgeStyle=orthogonalEdgeStyle;rounded=0;orthogonalLoop=1;jettySize=auto;html=1;entryX=0;entryY=0.5;entryDx=0;entryDy=0;entryPerimeter=0;" edge="1" parent="o3Q_CnFmKM4m5-AXHLZn-2" source="o3Q_CnFmKM4m5-AXHLZn-30" target="o3Q_CnFmKM4m5-AXHLZn-40">
          <mxGeometry relative="1" as="geometry">
            <Array as="points">
              <mxPoint x="795" y="50" />
            </Array>
          </mxGeometry>
        </mxCell>
        <mxCell id="o3Q_CnFmKM4m5-AXHLZn-43" style="edgeStyle=orthogonalEdgeStyle;rounded=0;orthogonalLoop=1;jettySize=auto;html=1;entryX=0;entryY=0.5;entryDx=0;entryDy=0;entryPerimeter=0;" edge="1" parent="o3Q_CnFmKM4m5-AXHLZn-2" source="o3Q_CnFmKM4m5-AXHLZn-40" target="o3Q_CnFmKM4m5-AXHLZn-35">
          <mxGeometry relative="1" as="geometry" />
        </mxCell>
        <mxCell id="o3Q_CnFmKM4m5-AXHLZn-44" value="" style="points=[[0.145,0.145,0],[0.5,0,0],[0.855,0.145,0],[1,0.5,0],[0.855,0.855,0],[0.5,1,0],[0.145,0.855,0],[0,0.5,0]];shape=mxgraph.bpmn.event;html=1;verticalLabelPosition=bottom;labelBackgroundColor=#ffffff;verticalAlign=top;align=center;perimeter=ellipsePerimeter;outlineConnect=0;aspect=fixed;outline=end;symbol=terminate2;" vertex="1" parent="o3Q_CnFmKM4m5-AXHLZn-2">
          <mxGeometry x="1100" y="25" width="50" height="50" as="geometry" />
        </mxCell>
        <mxCell id="o3Q_CnFmKM4m5-AXHLZn-45" style="edgeStyle=orthogonalEdgeStyle;rounded=0;orthogonalLoop=1;jettySize=auto;html=1;entryX=0;entryY=0.5;entryDx=0;entryDy=0;entryPerimeter=0;" edge="1" parent="o3Q_CnFmKM4m5-AXHLZn-2" source="o3Q_CnFmKM4m5-AXHLZn-35" target="o3Q_CnFmKM4m5-AXHLZn-44">
          <mxGeometry relative="1" as="geometry" />
        </mxCell>
        <mxCell id="o3Q_CnFmKM4m5-AXHLZn-46" value="Подтверждение&lt;div&gt;синхронизации&lt;/div&gt;" style="text;html=1;align=center;verticalAlign=middle;resizable=0;points=[];autosize=1;strokeColor=none;fillColor=none;" vertex="1" parent="o3Q_CnFmKM4m5-AXHLZn-2">
          <mxGeometry x="725" y="10" width="110" height="40" as="geometry" />
        </mxCell>
        <mxCell id="o3Q_CnFmKM4m5-AXHLZn-47" value="" style="endArrow=classic;dashed=1;html=1;rounded=0;entryX=0.5;entryY=0;entryDx=0;entryDy=0;entryPerimeter=0;endFill=1;" edge="1" parent="o3Q_CnFmKM4m5-AXHLZn-2" target="o3Q_CnFmKM4m5-AXHLZn-32">
          <mxGeometry width="50" height="50" relative="1" as="geometry">
            <mxPoint x="845" as="sourcePoint" />
            <mxPoint x="600" y="210" as="targetPoint" />
          </mxGeometry>
        </mxCell>
        <mxCell id="o3Q_CnFmKM4m5-AXHLZn-48" value="" style="endArrow=classic;dashed=1;html=1;rounded=0;entryX=0.5;entryY=0;entryDx=0;entryDy=0;entryPerimeter=0;endFill=1;" edge="1" parent="o3Q_CnFmKM4m5-AXHLZn-2" target="o3Q_CnFmKM4m5-AXHLZn-40">
          <mxGeometry width="50" height="50" relative="1" as="geometry">
            <mxPoint x="895" as="sourcePoint" />
            <mxPoint x="855" y="165" as="targetPoint" />
          </mxGeometry>
        </mxCell>
      </root>
    </mxGraphModel>
  </diagram>
</mxfile>
